<svg width="1440" height="810" viewBox="0 0 1440 810" fill="none" xmlns="http://www.w3.org/2000/svg">
<g opacity="0.2">
<path fill-rule="evenodd" clip-rule="evenodd" d="M144 0H288V81H144V0Z" stroke="#5C7CFA"/>
<path fill-rule="evenodd" clip-rule="evenodd" d="M144 81H288V162H144V81Z" stroke="#5C7CFA"/>
<path fill-rule="evenodd" clip-rule="evenodd" d="M720 81H864V162H720V81Z" stroke="#5C7CFA"/>
<path fill-rule="evenodd" clip-rule="evenodd" d="M864 81H1008V162H864V81Z" stroke="#5C7CFA"/>
<path fill-rule="evenodd" clip-rule="evenodd" d="M576 81H720V162H576V81Z" stroke="#5C7CFA"/>
<path fill-rule="evenodd" clip-rule="evenodd" d="M1008 81H1152V162H1008V81Z" stroke="#5C7CFA"/>
<path fill-rule="evenodd" clip-rule="evenodd" d="M1152 81H1296V162H1152V81Z" stroke="#5C7CFA"/>
<path fill-rule="evenodd" clip-rule="evenodd" d="M1296 81H1440V162H1296V81Z" stroke="#5C7CFA"/>
<path fill-rule="evenodd" clip-rule="evenodd" d="M288 81H432V162H288V81Z" stroke="#5C7CFA"/>
<path fill-rule="evenodd" clip-rule="evenodd" d="M0 81H144V162H0V81Z" stroke="#5C7CFA"/>
<path fill-rule="evenodd" clip-rule="evenodd" d="M432 81H576V162H432V81Z" stroke="#5C7CFA"/>
<path fill-rule="evenodd" clip-rule="evenodd" d="M720 0H864V81H720V0Z" stroke="#5C7CFA"/>
<path fill-rule="evenodd" clip-rule="evenodd" d="M864 0H1008V81H864V0Z" stroke="#5C7CFA"/>
<path fill-rule="evenodd" clip-rule="evenodd" d="M576 0H720V81H576V0Z" stroke="#5C7CFA"/>
<path fill-rule="evenodd" clip-rule="evenodd" d="M1008 0H1152V81H1008V0Z" stroke="#5C7CFA"/>
<path fill-rule="evenodd" clip-rule="evenodd" d="M1152 0H1296V81H1152V0Z" stroke="#5C7CFA"/>
<path fill-rule="evenodd" clip-rule="evenodd" d="M1296 0H1440V81H1296V0Z" stroke="#5C7CFA"/>
<path fill-rule="evenodd" clip-rule="evenodd" d="M288 0H432V81H288V0Z" stroke="#5C7CFA"/>
<path fill-rule="evenodd" clip-rule="evenodd" d="M0 0H144V81H0V0Z" stroke="#5C7CFA"/>
<path fill-rule="evenodd" clip-rule="evenodd" d="M432 0H576V81H432V0Z" stroke="#5C7CFA"/>
<path fill-rule="evenodd" clip-rule="evenodd" d="M144 162H288V243H144V162Z" stroke="#5C7CFA"/>
<path fill-rule="evenodd" clip-rule="evenodd" d="M144 243H288V324H144V243Z" stroke="#5C7CFA"/>
<path fill-rule="evenodd" clip-rule="evenodd" d="M720 243H864V324H720V243Z" stroke="#5C7CFA"/>
<path fill-rule="evenodd" clip-rule="evenodd" d="M864 243H1008V324H864V243Z" stroke="#5C7CFA"/>
<path fill-rule="evenodd" clip-rule="evenodd" d="M576 243H720V324H576V243Z" stroke="#5C7CFA"/>
<path fill-rule="evenodd" clip-rule="evenodd" d="M1008 243H1152V324H1008V243Z" stroke="#5C7CFA"/>
<path fill-rule="evenodd" clip-rule="evenodd" d="M1152 243H1296V324H1152V243Z" stroke="#5C7CFA"/>
<path fill-rule="evenodd" clip-rule="evenodd" d="M1296 243H1440V324H1296V243Z" stroke="#5C7CFA"/>
<path fill-rule="evenodd" clip-rule="evenodd" d="M288 243H432V324H288V243Z" stroke="#5C7CFA"/>
<path fill-rule="evenodd" clip-rule="evenodd" d="M0 243H144V324H0V243Z" stroke="#5C7CFA"/>
<path fill-rule="evenodd" clip-rule="evenodd" d="M432 243H576V324H432V243Z" stroke="#5C7CFA"/>
<path fill-rule="evenodd" clip-rule="evenodd" d="M720 162H864V243H720V162Z" stroke="#5C7CFA"/>
<path fill-rule="evenodd" clip-rule="evenodd" d="M864 162H1008V243H864V162Z" stroke="#5C7CFA"/>
<path fill-rule="evenodd" clip-rule="evenodd" d="M576 162H720V243H576V162Z" stroke="#5C7CFA"/>
<path fill-rule="evenodd" clip-rule="evenodd" d="M1008 162H1152V243H1008V162Z" stroke="#5C7CFA"/>
<path fill-rule="evenodd" clip-rule="evenodd" d="M1152 162H1296V243H1152V162Z" stroke="#5C7CFA"/>
<path fill-rule="evenodd" clip-rule="evenodd" d="M1296 162H1440V243H1296V162Z" stroke="#5C7CFA"/>
<path fill-rule="evenodd" clip-rule="evenodd" d="M288 162H432V243H288V162Z" stroke="#5C7CFA"/>
<path fill-rule="evenodd" clip-rule="evenodd" d="M0 162H144V243H0V162Z" stroke="#5C7CFA"/>
<path fill-rule="evenodd" clip-rule="evenodd" d="M432 162H576V243H432V162Z" stroke="#5C7CFA"/>
<path fill-rule="evenodd" clip-rule="evenodd" d="M144 324H288V405H144V324Z" stroke="#5C7CFA"/>
<path fill-rule="evenodd" clip-rule="evenodd" d="M144 405H288V486H144V405Z" stroke="#5C7CFA"/>
<path fill-rule="evenodd" clip-rule="evenodd" d="M720 405H864V486H720V405Z" stroke="#5C7CFA"/>
<path fill-rule="evenodd" clip-rule="evenodd" d="M864 405H1008V486H864V405Z" stroke="#5C7CFA"/>
<path fill-rule="evenodd" clip-rule="evenodd" d="M576 405H720V486H576V405Z" stroke="#5C7CFA"/>
<path fill-rule="evenodd" clip-rule="evenodd" d="M1008 405H1152V486H1008V405Z" stroke="#5C7CFA"/>
<path fill-rule="evenodd" clip-rule="evenodd" d="M1152 405H1296V486H1152V405Z" stroke="#5C7CFA"/>
<path fill-rule="evenodd" clip-rule="evenodd" d="M1296 405H1440V486H1296V405Z" stroke="#5C7CFA"/>
<path fill-rule="evenodd" clip-rule="evenodd" d="M288 405H432V486H288V405Z" stroke="#5C7CFA"/>
<path fill-rule="evenodd" clip-rule="evenodd" d="M0 405H144V486H0V405Z" stroke="#5C7CFA"/>
<path fill-rule="evenodd" clip-rule="evenodd" d="M432 405H576V486H432V405Z" stroke="#5C7CFA"/>
<path fill-rule="evenodd" clip-rule="evenodd" d="M720 324H864V405H720V324Z" stroke="#5C7CFA"/>
<path fill-rule="evenodd" clip-rule="evenodd" d="M864 324H1008V405H864V324Z" stroke="#5C7CFA"/>
<path fill-rule="evenodd" clip-rule="evenodd" d="M576 324H720V405H576V324Z" stroke="#5C7CFA"/>
<path fill-rule="evenodd" clip-rule="evenodd" d="M1008 324H1152V405H1008V324Z" stroke="#5C7CFA"/>
<path fill-rule="evenodd" clip-rule="evenodd" d="M1152 324H1296V405H1152V324Z" stroke="#5C7CFA"/>
<path fill-rule="evenodd" clip-rule="evenodd" d="M1296 324H1440V405H1296V324Z" stroke="#5C7CFA"/>
<path fill-rule="evenodd" clip-rule="evenodd" d="M288 324H432V405H288V324Z" stroke="#5C7CFA"/>
<path fill-rule="evenodd" clip-rule="evenodd" d="M0 324H144V405H0V324Z" stroke="#5C7CFA"/>
<path fill-rule="evenodd" clip-rule="evenodd" d="M432 324H576V405H432V324Z" stroke="#5C7CFA"/>
<path fill-rule="evenodd" clip-rule="evenodd" d="M144 486H288V567H144V486Z" stroke="#5C7CFA"/>
<path fill-rule="evenodd" clip-rule="evenodd" d="M144 567H288V648H144V567Z" stroke="#5C7CFA"/>
<path fill-rule="evenodd" clip-rule="evenodd" d="M720 567H864V648H720V567Z" stroke="#5C7CFA"/>
<path fill-rule="evenodd" clip-rule="evenodd" d="M864 567H1008V648H864V567Z" stroke="#5C7CFA"/>
<path fill-rule="evenodd" clip-rule="evenodd" d="M576 567H720V648H576V567Z" stroke="#5C7CFA"/>
<path fill-rule="evenodd" clip-rule="evenodd" d="M1008 567H1152V648H1008V567Z" stroke="#5C7CFA"/>
<path fill-rule="evenodd" clip-rule="evenodd" d="M1152 567H1296V648H1152V567Z" stroke="#5C7CFA"/>
<path fill-rule="evenodd" clip-rule="evenodd" d="M1296 567H1440V648H1296V567Z" stroke="#5C7CFA"/>
<path fill-rule="evenodd" clip-rule="evenodd" d="M288 567H432V648H288V567Z" stroke="#5C7CFA"/>
<path fill-rule="evenodd" clip-rule="evenodd" d="M0 567H144V648H0V567Z" stroke="#5C7CFA"/>
<path fill-rule="evenodd" clip-rule="evenodd" d="M432 567H576V648H432V567Z" stroke="#5C7CFA"/>
<path fill-rule="evenodd" clip-rule="evenodd" d="M720 486H864V567H720V486Z" stroke="#5C7CFA"/>
<path fill-rule="evenodd" clip-rule="evenodd" d="M864 486H1008V567H864V486Z" stroke="#5C7CFA"/>
<path fill-rule="evenodd" clip-rule="evenodd" d="M576 486H720V567H576V486Z" stroke="#5C7CFA"/>
<path fill-rule="evenodd" clip-rule="evenodd" d="M1008 486H1152V567H1008V486Z" stroke="#5C7CFA"/>
<path fill-rule="evenodd" clip-rule="evenodd" d="M1152 486H1296V567H1152V486Z" stroke="#5C7CFA"/>
<path fill-rule="evenodd" clip-rule="evenodd" d="M1296 486H1440V567H1296V486Z" stroke="#5C7CFA"/>
<path fill-rule="evenodd" clip-rule="evenodd" d="M288 486H432V567H288V486Z" stroke="#5C7CFA"/>
<path fill-rule="evenodd" clip-rule="evenodd" d="M0 486H144V567H0V486Z" stroke="#5C7CFA"/>
<path fill-rule="evenodd" clip-rule="evenodd" d="M432 486H576V567H432V486Z" stroke="#5C7CFA"/>
<path fill-rule="evenodd" clip-rule="evenodd" d="M144 648H288V729H144V648Z" stroke="#5C7CFA"/>
<path fill-rule="evenodd" clip-rule="evenodd" d="M144 729H288V810H144V729Z" stroke="#5C7CFA"/>
<path fill-rule="evenodd" clip-rule="evenodd" d="M720 729H864V810H720V729Z" stroke="#5C7CFA"/>
<path fill-rule="evenodd" clip-rule="evenodd" d="M864 729H1008V810H864V729Z" stroke="#5C7CFA"/>
<path fill-rule="evenodd" clip-rule="evenodd" d="M576 729H720V810H576V729Z" stroke="#5C7CFA"/>
<path fill-rule="evenodd" clip-rule="evenodd" d="M1008 729H1152V810H1008V729Z" stroke="#5C7CFA"/>
<path fill-rule="evenodd" clip-rule="evenodd" d="M1152 729H1296V810H1152V729Z" stroke="#5C7CFA"/>
<path fill-rule="evenodd" clip-rule="evenodd" d="M1296 729H1440V810H1296V729Z" stroke="#5C7CFA"/>
<path fill-rule="evenodd" clip-rule="evenodd" d="M288 729H432V810H288V729Z" stroke="#5C7CFA"/>
<path fill-rule="evenodd" clip-rule="evenodd" d="M0 729H144V810H0V729Z" stroke="#5C7CFA"/>
<path fill-rule="evenodd" clip-rule="evenodd" d="M432 729H576V810H432V729Z" stroke="#5C7CFA"/>
<path fill-rule="evenodd" clip-rule="evenodd" d="M720 648H864V729H720V648Z" stroke="#5C7CFA"/>
<path fill-rule="evenodd" clip-rule="evenodd" d="M864 648H1008V729H864V648Z" stroke="#5C7CFA"/>
<path fill-rule="evenodd" clip-rule="evenodd" d="M576 648H720V729H576V648Z" stroke="#5C7CFA"/>
<path fill-rule="evenodd" clip-rule="evenodd" d="M1008 648H1152V729H1008V648Z" stroke="#5C7CFA"/>
<path fill-rule="evenodd" clip-rule="evenodd" d="M1152 648H1296V729H1152V648Z" stroke="#5C7CFA"/>
<path fill-rule="evenodd" clip-rule="evenodd" d="M1296 648H1440V729H1296V648Z" stroke="#5C7CFA"/>
<path fill-rule="evenodd" clip-rule="evenodd" d="M288 648H432V729H288V648Z" stroke="#5C7CFA"/>
<path fill-rule="evenodd" clip-rule="evenodd" d="M0 648H144V729H0V648Z" stroke="#5C7CFA"/>
<path fill-rule="evenodd" clip-rule="evenodd" d="M432 648H576V729H432V648Z" stroke="#5C7CFA"/>
</g>
</svg>
